# xmcd
#
# Track frame offsets:
# 150
# 10575
# 22577
# 39387
# 53458
# 70480
# 83015
# 95280
# 108146
# 121743
# 134181
# 145778
# 158487
# 174084
# 187701
# 200478
# 211544
# 222008
# 243222
# 260376
# 272862
# 287848
# 302749
# 313626
# 327626
# 338439
#
# Disc length: 4772 seconds
#
#
# Revision: 0
# Processed by: cddbd v1.5.2PL0 Copyright (c) Steve Scherf et al.
# Submitted via: FreeRIP 2.945 
#
DISCID=5012a21a
DTITLE=Robbie Fulks - Country Love Songs - South Mouth
DYEAR=2005
DGENRE=2 fers
TTITLE0=Every Kind of Music But Country
TTITLE1=Rock Bottom, Pop. 1
TTITLE2=The Buck Starts Here
TTITLE3=(I Love) Nickels and Dimes
TTITLE4=Barely Human
TTITLE5=I'd Be Lonesome
TTITLE6=She Took a Lot of Pills (and Died)
TTITLE7=We'll Burn Together
TTITLE8=Let's Live Together
TTITLE9=The Scrapple Song
TTITLE10=Pete Way's Trousers
TTITLE11=Tears Only Run One Way
TTITLE12=Papa Was a Steel-Headed Man
TTITLE13=Goodbye Good-Looking
TTITLE14=I Told Her Lied
TTITLE15=Heart, I Wish You Were Here
TTITLE16=I Push Right Over
TTITLE17=Cold Statesville Ground
TTITLE18=Forgotten But Not Gone
TTITLE19=Busy Not Crying
TTITLE20=I Was Just Leaving
TTITLE21=What the Lord Hath Wrought (Any Fool Can Knock Down)
TTITLE22=Dirty-Mouthed Flo
TTITLE23=You Wouldn't Do That to Me
TTITLE24=Fuck This Town
TTITLE25=South Richmond Girl
EXTD=
EXTT0=
EXTT1=
EXTT2=
EXTT3=
EXTT4=
EXTT5=
EXTT6=
EXTT7=
EXTT8=
EXTT9=
EXTT10=
EXTT11=
EXTT12=
EXTT13=
EXTT14=
EXTT15=
EXTT16=
EXTT17=
EXTT18=
EXTT19=
EXTT20=
EXTT21=
EXTT22=
EXTT23=
EXTT24=
EXTT25=
PLAYORDER=
